# xmcd
#
# Track frame offsets: 
#        150
#        17448
#        31915
#        46068
#        61292
#        80420
#        95713
#
# Disc length: 1481 seconds
#
# Revision: 0
# Processed by: cddbd v1.5.2PL0 Copyright (c) Steve Scherf et al.
# Submitted via: ExactAudioCopy v1.1
#
DISCID=4905c707
DTITLE=SUZY - FACES OF LOVE (2ND MINI ALBUM)
DYEAR=2018
DGENRE=
TTITLE0=다른사람을 사랑하고 있어 
TTITLE1=HOLIDAY [Feat. DPR LIVE]   
TTITLE2=SObeR    
TTITLE3=나쁜X 
TTITLE4=잘자 내 몫까지 
TTITLE5=서툰 마음 [Prod. 정키]    
TTITLE6=너는 밤새도록  
EXTD=
EXTT0=
EXTT1=
EXTT2=
EXTT3=
EXTT4=
EXTT5=
EXTT6=
PLAYORDER=
